<svg width="215" height="31" viewBox="0 0 215 31" fill="none" xmlns="http://www.w3.org/2000/svg">
<path d="M28.744 7.312H18.412L14.254 31H6.652L10.81 7.312H0.436L1.612 0.759999H29.92L28.744 7.312ZM42.6581 11.386L49.7561 0.759999H57.3161L44.3801 19.366L42.3221 31H34.7201L36.7781 19.366L30.3941 0.759999H38.4161L41.6921 11.386H42.6581ZM69.2674 21.802H64.2694L62.6314 31H55.0714L60.4054 0.759999H73.2154C76.3794 0.759999 78.6334 1.488 79.9774 2.944C80.9574 4.064 81.4474 5.492 81.4474 7.228C81.4474 7.816 81.3914 8.432 81.2794 9.076L80.4394 13.822C80.0194 16.146 78.7874 18.064 76.7434 19.576C74.6994 21.06 72.2074 21.802 69.2674 21.802ZM70.5694 7.312H66.7894L65.4034 15.25H69.1414C71.4374 15.25 72.7674 14.228 73.1314 12.184L73.4254 10.462C73.4814 10.21 73.5094 9.874 73.5094 9.454C73.5094 9.034 73.2994 8.572 72.8794 8.068C72.4594 7.564 71.6894 7.312 70.5694 7.312ZM102.939 31H81.8546L87.1886 0.759999H108.273L107.097 7.312H93.5726L92.6066 12.982H103.779L102.603 19.534H91.4306L90.5906 24.448H104.115L102.939 31ZM147.812 7.312H137.48L133.322 31H125.72L129.878 7.312H119.504L120.68 0.759999H148.988L147.812 7.312ZM164.625 0.759999C167.817 0.759999 170.085 1.46 171.429 2.86C172.437 3.924 172.941 5.268 172.941 6.892C172.941 7.452 172.885 8.04 172.773 8.656L172.185 11.932C171.849 13.752 171.261 15.222 170.421 16.342C169.609 17.462 168.699 18.26 167.691 18.736L171.513 31H163.029L159.501 19.702H156.897L155.175 31H147.111L152.445 0.759999H164.625ZM161.979 7.312H158.829L157.737 14.62H160.677C162.161 14.62 163.225 14.27 163.869 13.57C164.513 12.842 164.835 11.89 164.835 10.714C164.835 8.446 163.883 7.312 161.979 7.312ZM187.567 0.759999L182.275 31H174.673L180.007 0.759999H187.567ZM202.404 21.802H197.406L195.768 31H188.208L193.542 0.759999H206.352C209.516 0.759999 211.77 1.488 213.114 2.944C214.094 4.064 214.584 5.492 214.584 7.228C214.584 7.816 214.528 8.432 214.416 9.076L213.576 13.822C213.156 16.146 211.924 18.064 209.88 19.576C207.836 21.06 205.344 21.802 202.404 21.802ZM203.706 7.312H199.926L198.54 15.25H202.278C204.574 15.25 205.904 14.228 206.268 12.184L206.562 10.462C206.618 10.21 206.646 9.874 206.646 9.454C206.646 9.034 206.436 8.572 206.016 8.068C205.596 7.564 204.826 7.312 203.706 7.312Z" fill="#3B4FFF"/>
</svg>
